<?xml version="1.0" encoding="UTF-8" standalone="no"?>
<!DOCTYPE svg PUBLIC "-//W3C//DTD SVG 1.1//EN" "http://www.w3.org/Graphics/SVG/1.1/DTD/svg11.dtd">
<svg width="100%" height="100%" viewBox="0 0 1080 1081" version="1.1" xmlns="http://www.w3.org/2000/svg" xmlns:xlink="http://www.w3.org/1999/xlink" xml:space="preserve" xmlns:serif="http://www.serif.com/" style="fill-rule:evenodd;clip-rule:evenodd;stroke-linejoin:round;stroke-miterlimit:2;">
    <g transform="matrix(1,0,0,1,-7,-937)">
        <g id="lgVerticalColor" transform="matrix(0.495576,0,0,0.499573,-2272.66,937.131)">
            <rect x="4600.02" y="0" width="2179.28" height="2161.85" style="fill:none;"/>
            <g transform="matrix(4.68647,0,0,4.64898,3503.87,-1397.25)">
                <g transform="matrix(0.973382,0,0,0.973382,-146.13,14.189)">
                    <g transform="matrix(0.576681,0,0,0.576681,245.489,303.035)">
                        <path d="M381.778,364.775L333.618,306.314L638.618,306.314L590.457,364.775C587.175,368.051 582.71,369.916 578.027,369.916C572.77,369.916 567.788,367.565 564.445,363.508L540.979,335.021C538.787,332.361 535.52,330.819 532.073,330.819C528.625,330.819 525.358,332.361 523.167,335.021L499.7,363.507C496.357,367.565 491.375,369.916 486.118,369.916C480.86,369.916 475.878,367.565 472.536,363.508L449.069,335.021C446.877,332.361 443.61,330.819 440.163,330.819C436.715,330.819 433.449,332.361 431.257,335.021L407.79,363.507C404.447,367.565 399.465,369.916 394.208,369.916C389.525,369.916 385.06,368.051 381.778,364.775Z"/>
                    </g>
                    <g transform="matrix(1.92664,0,0,1.9438,-737.599,-823.394)">
                        <path d="M624.858,667.24L610.118,667.24L655.764,612.32L701.41,667.24L686.669,667.24L680.518,659.839L662.185,659.839L671.487,648.648L666.304,642.413L651.821,659.839L641.676,659.839L661.097,636.472L655.764,630.056L624.858,667.24Z" style="fill:rgb(23,139,237);"/>
                    </g>
                    <g transform="matrix(1.12529,0,0,1.1021,119.078,-1.25601)">
                        <path d="M428.069,481.205C428.6,481.864 428.712,482.777 428.355,483.549C427.998,484.321 427.237,484.814 426.401,484.814C405.306,484.814 317.61,484.814 296.515,484.814C295.679,484.814 294.918,484.321 294.561,483.549C294.205,482.777 294.316,481.864 294.848,481.205C297.24,478.241 301.934,473.088 303.583,471.289C303.916,470.926 304.464,470.879 304.852,471.181C306.581,472.528 311.293,475.916 314.688,475.916C318.922,475.916 322.933,473.984 325.625,470.647C329.697,465.6 333.877,460.42 336.144,457.61C336.566,457.086 337.197,456.782 337.862,456.782C338.527,456.782 339.157,457.086 339.58,457.61C341.816,460.381 345.911,465.457 349.93,470.438C352.687,473.855 357.205,475.855 361.542,475.9C365.878,475.946 369.45,474.032 372.275,470.673C376.545,465.597 380.932,460.381 383.292,457.575C383.726,457.06 384.363,456.77 385.028,456.784C385.693,456.798 386.317,457.115 386.729,457.649C388.873,460.423 392.768,465.466 396.593,470.417C399.19,473.778 403.137,475.759 407.33,475.805C410.757,475.842 416.203,472.376 418.079,471.108C418.463,470.849 418.973,470.908 419.289,471.25C420.861,472.945 425.403,477.902 428.069,481.205Z" style="fill:rgb(23,139,237);"/>
                    </g>
                </g>
                <g transform="matrix(3.68492,0,0,3.68492,-899.385,-599.584)">
                    <path d="M331.128,321.261L326.949,321.261L326.949,345.966L322.437,351.28L322.437,311.015L339.568,311.015L336.577,314.646L326.949,314.646L326.949,317.581L334.159,317.581L331.128,321.261Z"/>
                </g>
                <g transform="matrix(3.68492,0,0,3.68492,-888.539,-599.584)">
                    <path d="M352.064,326.471L352.064,311.015L360.104,311.015C361.368,311.015 362.4,311.247 363.2,311.711C364.016,312.175 364.624,312.823 365.024,313.655C365.424,314.471 365.624,315.423 365.624,316.511C365.624,317.551 365.36,318.471 364.832,319.271C364.32,320.055 363.632,320.655 362.768,321.071C362.944,321.215 363.096,321.391 363.224,321.599C363.352,321.791 363.496,322.063 363.656,322.415L365.432,326.471L360.728,326.471L359.096,322.751C358.968,322.463 358.808,322.263 358.616,322.151C358.44,322.023 358.184,321.959 357.848,321.959L356.576,321.959L356.576,326.471L352.064,326.471ZM356.576,318.503L358.952,318.503C359.608,318.503 360.112,318.335 360.464,317.999C360.832,317.647 361.016,317.151 361.016,316.511C361.016,315.151 360.376,314.471 359.096,314.471L356.576,314.471L356.576,318.503Z" style="fill-rule:nonzero;"/>
                </g>
                <g transform="matrix(3.68492,0,0,3.68492,-888.539,-599.584)">
                    <path d="M366.824,326.471L366.824,324.215L373.544,314.471L367.184,314.471L367.184,311.015L379.472,311.015L379.472,313.367L372.824,323.015L379.616,323.015L379.616,326.471L366.824,326.471Z" style="fill-rule:nonzero;"/>
                </g>
                <g transform="matrix(3.68492,0,0,3.68492,-887.539,-599.584)">
                    <path d="M380.096,326.471L386.024,311.015L390.8,311.015L396.728,326.471L392.024,326.471L390.728,323.183L386.072,323.183L384.8,326.471L380.096,326.471ZM386.672,319.943L390.128,319.943L388.4,315.407L386.672,319.943Z" style="fill-rule:nonzero;"/>
                </g>
                <g transform="matrix(0.96429,0,0,0.96429,-268.48,-53.2759)">
                    <path d="M611.521,748.235L611.521,691.281L627.705,691.281L641.856,720.2L655.917,691.281L672.013,691.281L672.013,748.235L655.387,748.235L655.387,719.758L646.278,738.507L637.345,738.507L628.148,719.758L628.148,748.235L611.521,748.235Z" style="fill-rule:nonzero;"/>
                </g>
                <g transform="matrix(0.96429,0,0,0.96429,-270.409,-53.2759)">
                    <path d="M678.204,748.235L700.048,691.281L717.647,691.281L739.491,748.235L722.157,748.235L717.382,736.119L700.225,736.119L695.538,748.235L678.204,748.235ZM702.436,724.18L715.171,724.18L708.803,707.465L702.436,724.18Z" style="fill-rule:nonzero;"/>
                </g>
                <g transform="matrix(0.96429,0,0,0.96429,-272.337,-53.2759)">
                    <path d="M745.682,748.235L745.682,691.281L775.309,691.281C779.967,691.281 783.769,692.136 786.717,693.846C789.724,695.556 791.965,697.943 793.439,701.009C794.913,704.016 795.65,707.524 795.65,711.533C795.65,715.366 794.677,718.756 792.731,721.704C790.844,724.593 788.309,726.804 785.125,728.337C785.774,728.867 786.334,729.516 786.806,730.282C787.277,730.99 787.808,731.992 788.398,733.289L794.942,748.235L777.608,748.235L771.594,734.527C771.123,733.466 770.533,732.729 769.826,732.316C769.177,731.845 768.234,731.609 766.996,731.609L762.308,731.609L762.308,748.235L745.682,748.235ZM762.308,718.874L771.064,718.874C773.481,718.874 775.338,718.255 776.635,717.017C777.991,715.72 778.669,713.892 778.669,711.533C778.669,706.522 776.311,704.016 771.594,704.016L762.308,704.016L762.308,718.874Z" style="fill-rule:nonzero;"/>
                </g>
                <g transform="matrix(0.96429,0,0,0.96429,-273.302,-53.2759)">
                    <rect x="801.84" y="691.281" width="16.626" height="56.954" style="fill-rule:nonzero;"/>
                </g>
                <g transform="matrix(0.96429,0,0,0.96429,-272.337,-53.2759)">
                    <path d="M826.426,748.235L826.426,691.281L840.576,691.281L862.067,721.439L862.067,691.281L878.693,691.281L878.693,748.235L864.455,748.235L843.052,718.166L843.052,748.235L826.426,748.235Z" style="fill-rule:nonzero;"/>
                </g>
                <g transform="matrix(0.96429,0,0,0.96429,-271.373,-53.2759)">
                    <path d="M914.97,748.235L886.653,748.235L886.653,691.281L961.889,691.281L951.397,704.016L903.279,704.016L903.279,713.302L943.748,713.302L933.111,726.214L903.279,726.214L903.279,735.5L925.461,735.5L914.97,748.235Z"/>
                </g>
                <g transform="matrix(1.02525,0,0,1.02525,-10.7274,-15.6296)">
                    <path d="M375.41,546.481C391.806,546.481 405.118,559.793 405.118,576.189C405.118,592.586 391.806,605.897 375.41,605.897C359.013,605.897 345.701,592.586 345.701,576.189C345.701,559.793 359.013,546.481 375.41,546.481ZM375.41,561.112C367.088,561.112 360.332,567.868 360.332,576.189C360.332,584.511 367.088,591.267 375.41,591.267C383.731,591.267 390.487,584.511 390.487,576.189C390.487,567.868 383.731,561.112 375.41,561.112Z"/>
                </g>
                <g transform="matrix(1.17962,0,0,1.17962,-64.5329,-154.229)">
                    <path d="M327.302,719.557L327.302,704.101L339.014,704.101L339.014,707.557L331.814,707.557L331.814,710.077L338.126,710.077L338.126,713.581L331.814,713.581L331.814,716.101L339.014,716.101L339.014,719.557L327.302,719.557Z" style="fill:rgb(23,139,237);fill-rule:nonzero;"/>
                    <path d="M361.118,719.797C360.078,719.797 359.094,719.717 358.166,719.557C357.238,719.381 356.446,719.141 355.79,718.837L355.79,715.117C356.51,715.453 357.31,715.725 358.19,715.933C359.07,716.141 359.894,716.245 360.662,716.245C361.462,716.245 362.062,716.181 362.462,716.053C362.878,715.909 363.086,715.597 363.086,715.117C363.086,714.781 362.966,714.517 362.726,714.325C362.502,714.133 362.142,713.957 361.646,713.797C361.166,713.637 360.534,713.437 359.75,713.197C358.71,712.861 357.886,712.493 357.278,712.093C356.67,711.693 356.23,711.205 355.958,710.629C355.702,710.053 355.574,709.349 355.574,708.517C355.574,706.997 356.11,705.845 357.182,705.061C358.27,704.261 359.878,703.861 362.006,703.861C362.854,703.861 363.726,703.933 364.622,704.077C365.534,704.221 366.27,704.381 366.83,704.557L366.83,708.301C366.078,707.997 365.358,707.781 364.67,707.653C363.982,707.525 363.334,707.461 362.726,707.461C362.022,707.461 361.422,707.517 360.926,707.629C360.43,707.741 360.182,708.029 360.182,708.493C360.182,708.893 360.39,709.189 360.806,709.381C361.238,709.557 361.998,709.789 363.086,710.077C364.35,710.413 365.31,710.821 365.966,711.301C366.638,711.781 367.094,712.341 367.334,712.981C367.574,713.605 367.694,714.317 367.694,715.117C367.694,716.525 367.15,717.661 366.062,718.525C364.974,719.373 363.326,719.797 361.118,719.797Z" style="fill:rgb(23,139,237);fill-rule:nonzero;"/>
                    <path d="M388.358,719.557L388.358,707.461L384.014,707.461L384.014,704.101L397.214,704.101L397.214,707.461L392.87,707.461L392.87,719.557L388.358,719.557Z" style="fill:rgb(23,139,237);fill-rule:nonzero;"/>
                    <path d="M411.494,719.557L417.422,704.101L422.198,704.101L428.126,719.557L423.422,719.557L422.126,716.269L417.47,716.269L416.198,719.557L411.494,719.557ZM418.07,713.029L421.526,713.029L419.798,708.493L418.07,713.029Z" style="fill:rgb(23,139,237);fill-rule:nonzero;"/>
                    <path d="M445.406,719.557L445.406,704.101L449.918,704.101L449.918,716.101L456.878,716.101L456.878,719.557L445.406,719.557Z" style="fill:rgb(23,139,237);fill-rule:nonzero;"/>
                    <path d="M473.678,719.557L473.678,704.101L485.39,704.101L485.39,707.557L478.19,707.557L478.19,710.077L484.502,710.077L484.502,713.581L478.19,713.581L478.19,716.101L485.39,716.101L485.39,719.557L473.678,719.557Z" style="fill:rgb(23,139,237);fill-rule:nonzero;"/>
                    <rect x="502.43" y="704.101" width="4.512" height="15.456" style="fill:rgb(23,139,237);fill-rule:nonzero;"/>
                    <path d="M524.702,719.557L524.702,704.101L532.742,704.101C534.006,704.101 535.038,704.333 535.838,704.797C536.654,705.261 537.262,705.909 537.662,706.741C538.062,707.557 538.262,708.509 538.262,709.597C538.262,710.637 537.998,711.557 537.47,712.357C536.958,713.141 536.27,713.741 535.406,714.157C535.582,714.301 535.734,714.477 535.862,714.685C535.99,714.877 536.134,715.149 536.294,715.501L538.07,719.557L533.366,719.557L531.734,715.837C531.606,715.549 531.446,715.349 531.254,715.237C531.078,715.109 530.822,715.045 530.486,715.045L529.214,715.045L529.214,719.557L524.702,719.557ZM529.214,711.589L531.59,711.589C532.246,711.589 532.75,711.421 533.102,711.085C533.47,710.733 533.654,710.237 533.654,709.597C533.654,708.237 533.014,707.557 531.734,707.557L529.214,707.557L529.214,711.589Z" style="fill:rgb(23,139,237);fill-rule:nonzero;"/>
                    <path d="M562.598,719.797C560.038,719.797 558.078,719.173 556.718,717.925C555.374,716.677 554.702,714.661 554.702,711.877C554.702,709.957 555.006,708.413 555.614,707.245C556.222,706.061 557.11,705.205 558.278,704.677C559.462,704.133 560.902,703.861 562.598,703.861C564.294,703.861 565.726,704.133 566.894,704.677C568.078,705.205 568.974,706.061 569.582,707.245C570.19,708.413 570.494,709.957 570.494,711.877C570.494,714.661 569.814,716.677 568.454,717.925C567.094,719.173 565.142,719.797 562.598,719.797ZM562.598,715.957C563.75,715.957 564.582,715.637 565.094,714.997C565.622,714.341 565.886,713.301 565.886,711.877C565.886,710.357 565.622,709.285 565.094,708.661C564.582,708.021 563.75,707.701 562.598,707.701C561.446,707.701 560.606,708.021 560.078,708.661C559.566,709.285 559.31,710.357 559.31,711.877C559.31,713.301 559.566,714.341 560.078,714.997C560.606,715.637 561.446,715.957 562.598,715.957Z" style="fill:rgb(23,139,237);fill-rule:nonzero;"/>
                </g>
            </g>
        </g>
    </g>
</svg>
